<svg width="500" height="500" viewBox="0 0 500 500" fill="none" xmlns="http://www.w3.org/2000/svg">
<path d="M280.7 250C280.7 266.95 266.95 280.7 250 280.7C233.05 280.7 219.3 266.95 219.3 250C219.3 233.05 233.05 219.3 250 219.3C266.95 219.3 280.7 233.05 280.7 250ZM103.033 219.3C86.0833 219.3 72.3333 233.05 72.3333 250C72.3333 266.95 86.0833 280.7 103.033 280.7C119.983 280.7 133.733 266.95 133.733 250C133.733 233.05 120 219.3 103.033 219.3ZM500 250C500 388.067 388.067 500 250 500C111.933 500 0 388.067 0 250C0 111.933 111.933 0 250 0C388.067 0 500 111.933 500 250ZM172.117 250C172.117 211.85 141.2 180.933 103.05 180.933C64.9 180.933 33.9833 211.85 33.9833 250C33.9833 288.15 64.9 319.067 103.05 319.067C123.1 319.067 133.75 306.05 133.75 306.05V317.95H172.117V250ZM319.067 250C319.067 211.85 288.15 180.933 250 180.933C231.383 180.933 219.3 191.033 219.3 191.033V147.2H180.933V250C180.933 288.15 211.85 319.067 250 319.067C288.15 319.067 319.067 288.15 319.067 250ZM465.45 258.8H426.367C422.583 271.467 410.867 280.7 396.967 280.7C380.017 280.7 366.267 266.95 366.267 250C366.267 233.05 380.017 219.3 396.967 219.3C410.867 219.3 422.583 228.533 426.367 241.2H465.45C461.133 207.217 432.117 180.917 396.95 180.917C358.8 180.917 327.883 211.833 327.883 249.983C327.883 288.133 358.8 319.05 396.95 319.05C432.117 319.067 461.133 292.783 465.45 258.8Z" fill="#F2F2F2"/>
</svg>
